<svg xmlns="http://www.w3.org/2000/svg" version="1.1" xmlns:xlink="http://www.w3.org/1999/xlink" xmlns:svgjs="http://svgjs.dev/svgjs" viewBox="0 0 800 800" preserveAspectRatio="xMidYMid slice"><defs><filter id="ppixelate-pattern" x="-50%" y="-50%" width="200%" height="200%"><feTurbulence type="fractalNoise" baseFrequency="0.9" numOctaves="4" result="noise" seed="1"/><feDisplacementMap in="SourceGraphic" in2="noise" scale="2" xChannelSelector="R" yChannelSelector="G"/></filter><pattern id="ppixelate-pattern" x="0" y="0" width="8" height="8" patternUnits="userSpaceOnUse"><rect width="1" height="1" x="0" y="0" fill="#FFFF00"></rect><rect width="1" height="1" x="1" y="0" fill="#FFFF00"></rect><rect width="1" height="1" x="2" y="0" fill="#FFFF00"></rect><rect width="1" height="1" x="3" y="0" fill="#FFFF00"></rect><rect width="1" height="1" x="4" y="0" fill="#FFFF00"></rect><rect width="1" height="1" x="5" y="0" fill="#FFFF00"></rect><rect width="1" height="1" x="6" y="0" fill="#FFFF00"></rect><rect width="1" height="1" x="7" y="0" fill="#FFFF00"></rect><rect width="1" height="1" x="0" y="1" fill="#FFFF00"></rect><rect width="1" height="1" x="1" y="1" fill="#FFFF00"></rect><rect width="1" height="1" x="2" y="1" fill="#FFFF00"></rect><rect width="1" height="1" x="3" y="1" fill="#FFFF00"></rect><rect width="1" height="1" x="4" y="1" fill="#FFFF00"></rect><rect width="1" height="1" x="5" y="1" fill="#FFFF00"></rect><rect width="1" height="1" x="6" y="1" fill="#FFFF00"></rect><rect width="1" height="1" x="7" y="1" fill="#FFFF00"></rect><rect width="1" height="1" x="0" y="2" fill="#FFFF00"></rect><rect width="1" height="1" x="1" y="2" fill="#FFFF00"></rect><rect width="1" height="1" x="2" y="2" fill="#FFFF00"></rect><rect width="1" height="1" x="3" y="2" fill="#FFFF00"></rect><rect width="1" height="1" x="4" y="2" fill="#FFFF00"></rect><rect width="1" height="1" x="5" y="2" fill="#FFFF00"></rect><rect width="1" height="1" x="6" y="2" fill="#FFFF00"></rect><rect width="1" height="1" x="7" y="2" fill="#FFFF00"></rect><rect width="1" height="1" x="0" y="3" fill="#FFFF00"></rect><rect width="1" height="1" x="1" y="3" fill="#FFFF00"></rect><rect width="1" height="1" x="2" y="3" fill="#FFFF00"></rect><rect width="1" height="1" x="3" y="3" fill="#FFFF00"></rect><rect width="1" height="1" x="4" y="3" fill="#FFFF00"></rect><rect width="1" height="1" x="5" y="3" fill="#FFFF00"></rect><rect width="1" height="1" x="6" y="3" fill="#FFFF00"></rect><rect width="1" height="1" x="7" y="3" fill="#FFFF00"></rect><rect width="1" height="1" x="0" y="4" fill="#FFFF00"></rect><rect width="1" height="1" x="1" y="4" fill="#FFFF00"></rect><rect width="1" height="1" x="2" y="4" fill="#FFFF00"></rect><rect width="1" height="1" x="3" y="4" fill="#FFFF00"></rect><rect width="1" height="1" x="4" y="4" fill="#FFFF00"></rect><rect width="1" height="1" x="5" y="4" fill="#FFFF00"></rect><rect width="1" height="1" x="6" y="4" fill="#FFFF00"></rect><rect width="1" height="1" x="7" y="4" fill="#FFFF00"></rect><rect width="1" height="1" x="0" y="5" fill="#FFFF00"></rect><rect width="1" height="1" x="1" y="5" fill="#FFFF00"></rect><rect width="1" height="1" x="2" y="5" fill="#FFFF00"></rect><rect width="1" height="1" x="3" y="5" fill="#FFFF00"></rect><rect width="1" height="1" x="4" y="5" fill="#FFFF00"></rect><rect width="1" height="1" x="5" y="5" fill="#FFFF00"></rect><rect width="1" height="1" x="6" y="5" fill="#FFFF00"></rect><rect width="1" height="1" x="7" y="5" fill="#FFFF00"></rect><rect width="1" height="1" x="0" y="6" fill="#FFFF00"></rect><rect width="1" height="1" x="1" y="6" fill="#FFFF00"></rect><rect width="1" height="1" x="2" y="6" fill="#FFFF00"></rect><rect width="1" height="1" x="3" y="6" fill="#FFFF00"></rect><rect width="1" height="1" x="4" y="6" fill="#FFFF00"></rect><rect width="1" height="1" x="5" y="6" fill="#FFFF00"></rect><rect width="1" height="1" x="6" y="6" fill="#FFFF00"></rect><rect width="1" height="1" x="7" y="6" fill="#FFFF00"></rect><rect width="1" height="1" x="0" y="7" fill="#FFFF00"></rect><rect width="1" height="1" x="1" y="7" fill="#FFFF00"></rect><rect width="1" height="1" x="2" y="7" fill="#FFFF00"></rect><rect width="1" height="1" x="3" y="7" fill="#FFFF00"></rect><rect width="1" height="1" x="4" y="7" fill="#FFFF00"></rect><rect width="1" height="1" x="5" y="7" fill="#FFFF00"></rect><rect width="1" height="1" x="6" y="7" fill="#FFFF00"></rect><rect width="1" height="1" x="7" y="7" fill="#FFFF00"></rect></pattern></defs><rect width="100%" height="100%" fill="url(#ppixelate-pattern)"></rect></svg>